<?xml version="1.0" encoding="UTF-8" standalone="no"?>
<!-- Created with Inkscape (http://www.inkscape.org/) -->

<svg
   xmlns:dc="http://purl.org/dc/elements/1.1/"
   xmlns:cc="http://creativecommons.org/ns#"
   xmlns:rdf="http://www.w3.org/1999/02/22-rdf-syntax-ns#"
   xmlns:svg="http://www.w3.org/2000/svg"
   xmlns="http://www.w3.org/2000/svg"
   xmlns:sodipodi="http://sodipodi.sourceforge.net/DTD/sodipodi-0.dtd"
   xmlns:inkscape="http://www.inkscape.org/namespaces/inkscape"
   id="svg2"
   version="1.1"
   inkscape:version="0.91 r13725"
   xml:space="preserve"
   width="273.10001"
   height="273.10001"
   viewBox="0 0 273.10001 273.10001"
   sodipodi:docname="tlabs-logo-box.svg"><metadata
     id="metadata8"><rdf:RDF><cc:Work
         rdf:about=""><dc:format>image/svg+xml</dc:format><dc:type
           rdf:resource="http://purl.org/dc/dcmitype/StillImage" /><dc:title></dc:title></cc:Work></rdf:RDF></metadata><defs
     id="defs6" /><sodipodi:namedview
     pagecolor="#ffffff"
     bordercolor="#666666"
     borderopacity="1"
     objecttolerance="10"
     gridtolerance="10"
     guidetolerance="10"
     inkscape:pageopacity="0"
     inkscape:pageshadow="2"
     inkscape:window-width="735"
     inkscape:window-height="517"
     id="namedview4"
     showgrid="false"
     inkscape:zoom="0.86415231"
     inkscape:cx="136.55"
     inkscape:cy="136.55"
     inkscape:window-x="1185"
     inkscape:window-y="228"
     inkscape:window-maximized="0"
     inkscape:current-layer="g10" /><g
     id="g10"
     inkscape:groupmode="layer"
     inkscape:label="ink_ext_XXXXXX"
     transform="matrix(1.25,0,0,-1.25,0,273.1)"><g
       id="g12"
       transform="scale(0.1,0.1)"><path
         d="m 0,0 2184.82,0 0,2184.83 L 0,2184.83 0,0 Z"
         style="fill:#ec008c;fill-opacity:1;fill-rule:nonzero;stroke:none"
         id="path14"
         inkscape:connector-curvature="0" /><path
         d="m 256.277,1780.65 0,164.64 -51.277,0 0,19.57 124.961,0 0,-19.57 -51.145,0 0,-164.64 -22.539,0"
         style="fill:#ffffff;fill-opacity:1;fill-rule:nonzero;stroke:none"
         id="path16"
         inkscape:connector-curvature="0" /><path
         d="m 412.688,1855.41 c -0.633,9.09 -2.297,16.6 -4.993,22.54 -5.218,11.42 -13.718,17.14 -25.507,17.14 -11.157,0 -19.52,-5.18 -25.102,-15.52 -3.418,-6.39 -5.715,-14.44 -6.883,-24.16 l 62.485,0 z m 21.05,-16.6 -83.8,0 c 0.175,-8.54 1.39,-16.01 3.64,-22.4 5.399,-15.38 15.25,-23.07 29.559,-23.07 11.242,0 19.34,4.8 24.285,14.43 1.801,3.52 3.461,8.01 4.996,13.5 l 19.969,0 c -1.891,-10.34 -5.352,-18.89 -10.391,-25.64 -9.176,-12.6 -22.039,-18.89 -38.594,-18.89 -18.441,0 -32.386,7.02 -41.836,21.05 -8.363,12.42 -12.546,28.02 -12.546,46.82 0,19.53 4.808,35.64 14.437,48.32 9.535,12.5 22.356,18.75 38.461,18.75 13.312,0 24.383,-4.13 33.199,-12.41 9.531,-9.09 15.336,-22.58 17.406,-40.48 0.629,-5.31 1.036,-11.97 1.215,-19.98"
         style="fill:#ffffff;fill-opacity:1;fill-rule:nonzero;stroke:none"
         id="path18"
         inkscape:connector-curvature="0" /><path
         d="m 465.18,1780.65 20.6445,0 0,184.207 -20.6445,0 0,-184.207 z"
         style="fill:#ffffff;fill-opacity:1;fill-rule:nonzero;stroke:none"
         id="path20"
         inkscape:connector-curvature="0" /><path
         d="m 600.938,1855.41 c -0.629,9.09 -2.293,16.6 -4.993,22.54 -5.218,11.42 -13.718,17.14 -25.507,17.14 -11.157,0 -19.52,-5.18 -25.102,-15.52 -3.418,-6.39 -5.711,-14.44 -6.879,-24.16 l 62.481,0 z m 21.054,-16.6 -83.804,0 c 0.175,-8.54 1.39,-16.01 3.644,-22.4 5.395,-15.38 15.246,-23.07 29.555,-23.07 11.246,0 19.34,4.8 24.289,14.43 1.801,3.52 3.461,8.01 4.992,13.5 l 19.973,0 c -1.891,-10.34 -5.352,-18.89 -10.391,-25.64 -9.176,-12.6 -22.043,-18.89 -38.594,-18.89 -18.441,0 -32.386,7.02 -41.836,21.05 -8.367,12.42 -12.55,28.02 -12.55,46.82 0,19.53 4.808,35.64 14.441,48.32 9.535,12.5 22.352,18.75 38.461,18.75 13.308,0 24.379,-4.13 33.195,-12.41 9.531,-9.09 15.34,-22.58 17.41,-40.48 0.629,-5.31 1.036,-11.97 1.215,-19.98"
         style="fill:#ffffff;fill-opacity:1;fill-rule:nonzero;stroke:none"
         id="path22"
         inkscape:connector-curvature="0" /><path
         d="m 652.891,1780.65 0,184.21 20.648,0 0,-108.09 48.984,51 26.321,0 -46.289,-47.23 49.258,-79.89 -24.293,0 -39.809,64.64 -14.172,-14.44 0,-50.2 -20.648,0"
         style="fill:#ffffff;fill-opacity:1;fill-rule:nonzero;stroke:none"
         id="path24"
         inkscape:connector-curvature="0" /><path
         d="m 815.906,1895.09 c -9.715,0 -17.543,-4.14 -23.48,-12.42 -6.836,-9.63 -10.254,-22.4 -10.254,-38.32 0,-16.2 3.324,-29.02 9.984,-38.46 5.942,-8.37 14.121,-12.55 24.563,-12.55 9.355,0 16.777,3.55 22.265,10.66 7.465,9.71 11.204,23.11 11.204,40.21 0,16.28 -3.29,29.01 -9.856,38.19 -5.937,8.46 -14.078,12.69 -24.426,12.69 z m 1.219,16.59 c 16.371,0 29.551,-6.16 39.539,-18.48 9.625,-11.88 14.441,-28.16 14.441,-48.85 0,-22.94 -5.714,-40.54 -17.14,-52.77 -9.27,-9.9 -21.641,-14.84 -37.11,-14.84 -18,0 -31.804,6.39 -41.429,19.16 -9.449,12.59 -14.172,28.7 -14.172,48.31 0,18.9 4.23,34.32 12.687,46.29 10.075,14.12 24.465,21.18 43.184,21.18"
         style="fill:#ffffff;fill-opacity:1;fill-rule:nonzero;stroke:none"
         id="path26"
         inkscape:connector-curvature="0" /><path
         d="m 902.008,1780.65 0,127.12 19.297,0 0,-16.06 c 4.047,5.85 7.965,10.17 11.742,12.96 6.387,4.68 13.808,7.01 22.266,7.01 15.835,0 26.628,-7.01 32.386,-21.04 8.996,14.03 21.271,21.04 36.841,21.04 8.46,0 15.84,-2.25 22.13,-6.74 7.02,-5.13 11.34,-12.55 12.96,-22.27 0.63,-3.51 0.94,-8.23 0.94,-14.17 l 0,-87.85 -20.64,0 0,80.16 c 0,10.34 -0.63,17.45 -1.89,21.33 -2.88,8.63 -9.27,12.95 -19.17,12.95 -12.14,0 -20.417,-6.48 -24.827,-19.43 -1.621,-4.68 -2.426,-13.86 -2.426,-27.53 l 0,-67.48 -20.648,0 0,81.78 c 0,12.14 -1.352,20.42 -4.051,24.83 -3.328,5.22 -8.5,7.83 -15.516,7.83 -7.293,0 -13.496,-2.75 -18.625,-8.23 -5.132,-5.32 -8.23,-12.6 -9.308,-21.86 -0.543,-4.41 -0.813,-10.08 -0.813,-17.01 l 0,-67.34 -20.648,0"
         style="fill:#ffffff;fill-opacity:1;fill-rule:nonzero;stroke:none"
         id="path28"
         inkscape:connector-curvature="0" /><path
         d="m 212.965,1504.25 39.5352,0 0,184.203 -39.5352,0 0,-184.203 z"
         style="fill:#ffffff;fill-opacity:1;fill-rule:nonzero;stroke:none"
         id="path30"
         inkscape:connector-curvature="0" /><path
         d="m 279.086,1504.25 0,127.13 36.574,0 0,-11.75 c 8.278,10.43 19.34,15.66 33.195,15.66 16.012,0 27.668,-5.68 34.954,-17.01 4.496,-7.01 6.75,-17.99 6.75,-32.93 l 0,-81.1 -37.922,0 0,75.16 c 0,8.82 -0.856,15.03 -2.563,18.63 -2.613,5.67 -6.929,8.5 -12.957,8.5 -8.012,0 -13.812,-4.54 -17.41,-13.63 -1.797,-4.68 -2.695,-13.36 -2.695,-26.04 l 0,-62.62 -37.926,0"
         style="fill:#ffffff;fill-opacity:1;fill-rule:nonzero;stroke:none"
         id="path32"
         inkscape:connector-curvature="0" /><path
         d="m 414.309,1504.25 0,127.13 36.57,0 0,-11.75 c 8.277,10.43 19.34,15.66 33.199,15.66 16.012,0 27.664,-5.68 34.949,-17.01 4.496,-7.01 6.75,-17.99 6.75,-32.93 l 0,-81.1 -37.922,0 0,75.16 c 0,8.82 -0.851,15.03 -2.562,18.63 -2.613,5.67 -6.93,8.5 -12.953,8.5 -8.016,0 -13.817,-4.54 -17.414,-13.63 -1.797,-4.68 -2.696,-13.36 -2.696,-26.04 l 0,-62.62 -37.921,0"
         style="fill:#ffffff;fill-opacity:1;fill-rule:nonzero;stroke:none"
         id="path34"
         inkscape:connector-curvature="0" /><path
         d="m 603.91,1608.7 c -7.015,0 -12.547,-3.82 -16.597,-11.47 -3.958,-7.47 -5.934,-17.23 -5.934,-29.28 0,-12.6 1.976,-22.54 5.934,-29.83 4.05,-7.47 9.761,-11.2 17.14,-11.2 7.016,0 12.461,3.42 16.328,10.26 4.317,7.55 6.481,17.76 6.481,30.63 0,12.32 -1.942,22.04 -5.809,29.15 -4.133,7.83 -9.984,11.74 -17.543,11.74 z m 1.621,26.59 c 17.278,0 31.489,-5.99 42.649,-17.95 11.332,-12.15 17,-28.61 17,-49.39 0,-21.51 -6.032,-38.42 -18.086,-50.75 -10.977,-11.24 -25.192,-16.86 -42.641,-16.86 -18.535,0 -33.379,6.29 -44.535,18.89 -10.977,12.23 -16.461,28.38 -16.461,48.45 0,19.7 5.309,35.67 15.922,47.9 11.336,13.14 26.719,19.71 46.152,19.71"
         style="fill:#ffffff;fill-opacity:1;fill-rule:nonzero;stroke:none"
         id="path36"
         inkscape:connector-curvature="0" /><path
         d="m 746.695,1504.25 -41.562,0 -38.461,127.13 39.402,0 20.242,-80.98 20.243,80.98 37.918,0 -37.782,-127.13"
         style="fill:#ffffff;fill-opacity:1;fill-rule:nonzero;stroke:none"
         id="path38"
         inkscape:connector-curvature="0" /><path
         d="m 861.531,1562.14 c -8.816,-0.36 -15.695,-1.21 -20.64,-2.57 -10.985,-2.87 -16.465,-9.26 -16.465,-19.15 0,-4.41 1.211,-7.92 3.64,-10.53 2.161,-2.34 5.262,-3.51 9.313,-3.51 8.363,0 14.887,3.96 19.562,11.88 3.063,5.03 4.59,10.74 4.59,17.13 l 0,6.75 z m 46.422,-32.25 0,-24.02 c -4.765,-2.16 -9.848,-3.24 -15.25,-3.24 -10.883,0 -19.156,4.59 -24.828,13.76 -4.227,-4.41 -8.051,-7.6 -11.469,-9.58 -7.379,-4.31 -16.465,-6.47 -27.261,-6.47 -12.325,0 -22.133,2.87 -29.418,8.63 -8.821,6.93 -13.223,16.46 -13.223,28.61 0,13.31 4.988,23.84 14.976,31.58 7.375,5.76 18.086,9.4 32.118,10.93 6.121,0.63 15.429,1.13 27.933,1.48 l 0,10.13 c 0,13.22 -5.625,19.84 -16.867,19.84 -10.523,0 -16.285,-6.44 -17.269,-19.3 l -36.168,0 c 0.714,13.4 5.394,23.79 14.031,31.17 9.269,7.91 22.445,11.88 39.543,11.88 20.332,0 35.086,-4.86 44.262,-14.58 4.769,-4.95 7.691,-11.56 8.773,-19.83 0.355,-3.16 0.539,-9.5 0.539,-19.03 l 0,-42.51 c 0,-4.86 0.543,-7.88 1.621,-9.05 1.164,-1.25 2.469,-1.89 3.91,-1.89 0.899,0 2.25,0.5 4.047,1.49"
         style="fill:#ffffff;fill-opacity:1;fill-rule:nonzero;stroke:none"
         id="path40"
         inkscape:connector-curvature="0" /><path
         d="m 910.387,1607.62 0,23.76 17.949,0 0,8.23 25.504,34 12.414,0 0,-42.23 22,0 0,-23.76 -22,0 0,-60.19 c 0.184,-6.66 0.543,-10.97 1.082,-12.95 1.078,-3.96 4.539,-5.94 10.391,-5.94 2.699,0 5.753,0.63 9.175,1.89 l 0,-27.12 c -7.468,-1.63 -14.8,-2.43 -21.996,-2.43 -15.117,0 -25.418,4.09 -30.902,12.28 -2.969,4.4 -4.77,10.79 -5.399,19.16 -0.183,2.43 -0.269,7.91 -0.269,16.46 l 0,58.84 -17.949,0"
         style="fill:#ffffff;fill-opacity:1;fill-rule:nonzero;stroke:none"
         id="path42"
         inkscape:connector-curvature="0" /><path
         d="m 1002.56,1504.25 0,127.13 37.92,0 0,-127.13 -37.92,0 z m 0,147.36 0,36.84 37.92,0 0,-36.84 -37.92,0"
         style="fill:#ffffff;fill-opacity:1;fill-rule:nonzero;stroke:none"
         id="path44"
         inkscape:connector-curvature="0" /><path
         d="m 1119.69,1608.7 c -7.01,0 -12.55,-3.82 -16.59,-11.47 -3.96,-7.47 -5.94,-17.23 -5.94,-29.28 0,-12.6 1.98,-22.54 5.94,-29.83 4.04,-7.47 9.76,-11.2 17.13,-11.2 7.02,0 12.47,3.42 16.33,10.26 4.32,7.55 6.48,17.76 6.48,30.63 0,12.32 -1.94,22.04 -5.8,29.15 -4.14,7.83 -9.99,11.74 -17.55,11.74 z m 1.62,26.59 c 17.28,0 31.49,-5.99 42.65,-17.95 11.33,-12.15 17,-28.61 17,-49.39 0,-21.51 -6.03,-38.42 -18.08,-50.75 -10.98,-11.24 -25.19,-16.86 -42.65,-16.86 -18.53,0 -33.37,6.29 -44.53,18.89 -10.98,12.23 -16.46,28.38 -16.46,48.45 0,19.7 5.31,35.67 15.92,47.9 11.33,13.14 26.72,19.71 46.15,19.71"
         style="fill:#ffffff;fill-opacity:1;fill-rule:nonzero;stroke:none"
         id="path46"
         inkscape:connector-curvature="0" /><path
         d="m 1199.19,1504.25 0,127.13 36.57,0 0,-11.75 c 8.27,10.43 19.34,15.66 33.2,15.66 16.01,0 27.66,-5.68 34.95,-17.01 4.5,-7.01 6.74,-17.99 6.74,-32.93 l 0,-81.1 -37.92,0 0,75.16 c 0,8.82 -0.85,15.03 -2.56,18.63 -2.61,5.67 -6.93,8.5 -12.95,8.5 -8.01,0 -13.81,-4.54 -17.42,-13.63 -1.79,-4.68 -2.69,-13.36 -2.69,-26.04 l 0,-62.62 -37.92,0"
         style="fill:#ffffff;fill-opacity:1;fill-rule:nonzero;stroke:none"
         id="path48"
         inkscape:connector-curvature="0" /><path
         d="m 212.965,1227.85 0,184.21 39.535,0 0,-149.93 72.336,0 0,-34.28 -111.871,0"
         style="fill:#ffffff;fill-opacity:1;fill-rule:nonzero;stroke:none"
         id="path50"
         inkscape:connector-curvature="0" /><path
         d="m 415.25,1285.75 c -8.82,-0.36 -15.699,-1.22 -20.645,-2.57 -10.984,-2.88 -16.464,-9.26 -16.464,-19.16 0,-4.41 1.211,-7.92 3.64,-10.53 2.16,-2.34 5.266,-3.51 9.313,-3.51 8.363,0 14.886,3.96 19.566,11.88 3.063,5.03 4.59,10.75 4.59,17.14 l 0,6.75 z m 46.422,-32.26 0,-24.02 c -4.77,-2.16 -9.852,-3.24 -15.25,-3.24 -10.887,0 -19.16,4.59 -24.828,13.77 -4.231,-4.41 -8.055,-7.61 -11.473,-9.58 -7.379,-4.32 -16.465,-6.48 -27.262,-6.48 -12.324,0 -22.132,2.88 -29.418,8.63 -8.816,6.93 -13.222,16.47 -13.222,28.61 0,13.32 4.992,23.84 14.976,31.59 7.379,5.75 18.086,9.39 32.118,10.92 6.121,0.63 15.429,1.13 27.937,1.49 l 0,10.12 c 0,13.23 -5.625,19.84 -16.871,19.84 -10.524,0 -16.285,-6.44 -17.27,-19.3 l -36.168,0 c 0.719,13.4 5.395,23.8 14.036,31.17 9.265,7.92 22.445,11.88 39.539,11.88 20.332,0 35.089,-4.86 44.261,-14.58 4.774,-4.94 7.692,-11.56 8.778,-19.83 0.355,-3.16 0.535,-9.5 0.535,-19.03 l 0,-42.51 c 0,-4.86 0.543,-7.88 1.621,-9.04 1.168,-1.26 2.473,-1.89 3.91,-1.89 0.899,0 2.25,0.49 4.051,1.48"
         style="fill:#ffffff;fill-opacity:1;fill-rule:nonzero;stroke:none"
         id="path52"
         inkscape:connector-curvature="0" /><path
         d="m 535.625,1330.14 c -7.016,0 -12.598,-3.6 -16.734,-10.79 -4.047,-7.02 -6.075,-16.29 -6.075,-27.8 0,-10.25 1.622,-18.85 4.86,-25.78 4.137,-8.72 10.347,-13.09 18.625,-13.09 6.203,0 11.289,3.02 15.246,9.05 4.859,7.55 7.293,17.49 7.293,29.82 0,11.88 -2.164,21.37 -6.481,28.47 -4.046,6.75 -9.629,10.12 -16.734,10.12 z m -59.379,-102.29 0,184.21 37.926,0 0,-67.75 c 8.633,9.72 19.34,14.58 32.113,14.58 9.988,0 19.164,-3.11 27.528,-9.32 15.296,-11.33 22.945,-30.22 22.945,-56.68 0,-18.71 -4.141,-34.36 -12.418,-46.96 -9.629,-14.66 -22.809,-21.99 -39.539,-21.99 -13.317,0 -23.977,4.86 -31.985,14.57 l 0,-10.66 -36.57,0"
         style="fill:#ffffff;fill-opacity:1;fill-rule:nonzero;stroke:none"
         id="path54"
         inkscape:connector-curvature="0" /><path
         d="m 669.359,1332.3 c -7.015,0 -12.546,-3.82 -16.593,-11.47 -3.961,-7.47 -5.942,-17.22 -5.942,-29.28 0,-12.6 1.981,-22.54 5.942,-29.82 4.047,-7.48 9.757,-11.21 17.136,-11.21 7.016,0 12.461,3.42 16.328,10.26 4.317,7.56 6.481,17.77 6.481,30.63 0,12.32 -1.941,22.04 -5.809,29.15 -4.132,7.83 -9.984,11.74 -17.543,11.74 z m 1.621,26.59 c 17.278,0 31.493,-5.98 42.649,-17.95 11.332,-12.14 17,-28.61 17,-49.39 0,-21.5 -6.027,-38.42 -18.086,-50.74 -10.977,-11.25 -25.188,-16.87 -42.641,-16.87 -18.535,0 -33.379,6.29 -44.535,18.89 -10.976,12.23 -16.461,28.39 -16.461,48.45 0,19.7 5.309,35.67 15.922,47.9 11.332,13.14 26.719,19.71 46.152,19.71"
         style="fill:#ffffff;fill-opacity:1;fill-rule:nonzero;stroke:none"
         id="path56"
         inkscape:connector-curvature="0" /><path
         d="m 748.848,1227.85 0,127.13 36.574,0 0,-16.2 c 8.367,13.4 18.891,20.11 31.574,20.11 2.969,0 6.031,-0.41 9.18,-1.22 l 0,-32.92 c -4.77,1.34 -8.774,2.02 -12.012,2.02 -11.156,0 -19.027,-5.49 -23.617,-16.46 -2.52,-5.85 -3.774,-15.52 -3.774,-29.01 l 0,-53.45 -37.925,0"
         style="fill:#ffffff;fill-opacity:1;fill-rule:nonzero;stroke:none"
         id="path58"
         inkscape:connector-curvature="0" /><path
         d="m 908.496,1285.75 c -8.816,-0.36 -15.699,-1.22 -20.644,-2.57 -10.981,-2.88 -16.465,-9.26 -16.465,-19.16 0,-4.41 1.211,-7.92 3.64,-10.53 2.161,-2.34 5.266,-3.51 9.313,-3.51 8.363,0 14.89,3.96 19.566,11.88 3.063,5.03 4.59,10.75 4.59,17.14 l 0,6.75 z m 46.422,-32.26 0,-24.02 c -4.766,-2.16 -9.852,-3.24 -15.25,-3.24 -10.883,0 -19.16,4.59 -24.828,13.77 -4.231,-4.41 -8.055,-7.61 -11.473,-9.58 -7.375,-4.32 -16.465,-6.48 -27.258,-6.48 -12.324,0 -22.132,2.88 -29.421,8.63 -8.817,6.93 -13.219,16.47 -13.219,28.61 0,13.32 4.988,23.84 14.972,31.59 7.379,5.75 18.086,9.39 32.122,10.92 6.117,0.63 15.429,1.13 27.933,1.49 l 0,10.12 c 0,13.23 -5.625,19.84 -16.871,19.84 -10.52,0 -16.281,-6.44 -17.27,-19.3 l -36.167,0 c 0.718,13.4 5.398,23.8 14.035,31.17 9.265,7.92 22.445,11.88 39.539,11.88 20.332,0 35.09,-4.86 44.261,-14.58 4.774,-4.94 7.692,-11.56 8.778,-19.83 0.355,-3.16 0.535,-9.5 0.535,-19.03 l 0,-42.51 c 0,-4.86 0.543,-7.88 1.621,-9.04 1.168,-1.26 2.473,-1.89 3.91,-1.89 0.903,0 2.254,0.49 4.051,1.48"
         style="fill:#ffffff;fill-opacity:1;fill-rule:nonzero;stroke:none"
         id="path60"
         inkscape:connector-curvature="0" /><path
         d="m 957.348,1331.22 0,23.76 17.949,0 0,8.23 25.503,34 12.42,0 0,-42.23 21.99,0 0,-23.76 -21.99,0 0,-60.18 c 0.18,-6.66 0.54,-10.98 1.08,-12.96 1.08,-3.96 4.54,-5.94 10.39,-5.94 2.7,0 5.75,0.63 9.18,1.9 l 0,-27.13 c -7.47,-1.62 -14.81,-2.43 -22,-2.43 -15.116,0 -25.421,4.09 -30.901,12.28 -2.973,4.41 -4.774,10.79 -5.403,19.17 -0.179,2.42 -0.269,7.91 -0.269,16.45 l 0,58.84 -17.949,0"
         style="fill:#ffffff;fill-opacity:1;fill-rule:nonzero;stroke:none"
         id="path62"
         inkscape:connector-curvature="0" /><path
         d="m 1101.47,1332.3 c -7.01,0 -12.54,-3.82 -16.59,-11.47 -3.96,-7.47 -5.94,-17.22 -5.94,-29.28 0,-12.6 1.98,-22.54 5.94,-29.82 4.05,-7.48 9.76,-11.21 17.14,-11.21 7.01,0 12.46,3.42 16.32,10.26 4.32,7.56 6.48,17.77 6.48,30.63 0,12.32 -1.93,22.04 -5.8,29.15 -4.14,7.83 -9.99,11.74 -17.55,11.74 z m 1.63,26.59 c 17.27,0 31.48,-5.98 42.64,-17.95 11.34,-12.14 17,-28.61 17,-49.39 0,-21.5 -6.03,-38.42 -18.08,-50.74 -10.98,-11.25 -25.19,-16.87 -42.64,-16.87 -18.54,0 -33.38,6.29 -44.54,18.89 -10.98,12.23 -16.46,28.39 -16.46,48.45 0,19.7 5.31,35.67 15.92,47.9 11.34,13.14 26.72,19.71 46.16,19.71"
         style="fill:#ffffff;fill-opacity:1;fill-rule:nonzero;stroke:none"
         id="path64"
         inkscape:connector-curvature="0" /><path
         d="m 1180.96,1227.85 0,127.13 36.58,0 0,-16.2 c 8.36,13.4 18.89,20.11 31.57,20.11 2.97,0 6.03,-0.41 9.18,-1.22 l 0,-32.92 c -4.77,1.34 -8.77,2.02 -12.01,2.02 -11.15,0 -19.02,-5.49 -23.61,-16.46 -2.52,-5.85 -3.78,-15.52 -3.78,-29.01 l 0,-53.45 -37.93,0"
         style="fill:#ffffff;fill-opacity:1;fill-rule:nonzero;stroke:none"
         id="path66"
         inkscape:connector-curvature="0" /><path
         d="m 1270.84,1227.85 0,127.13 37.92,0 0,-127.13 -37.92,0 z m 0,147.36 0,36.85 37.92,0 0,-36.85 -37.92,0"
         style="fill:#ffffff;fill-opacity:1;fill-rule:nonzero;stroke:none"
         id="path68"
         inkscape:connector-curvature="0" /><path
         d="m 1407.14,1304.91 c -0.45,5.85 -1.49,10.79 -3.11,14.84 -1.71,4.41 -4.36,7.96 -7.96,10.67 -2.7,2.06 -5.8,3.1 -9.31,3.1 -7.82,0 -13.63,-4.28 -17.4,-12.82 -1.99,-4.32 -3.25,-9.59 -3.78,-15.79 l 41.56,0 z m 37.92,-22.67 -79.76,0 c 1.09,-21.95 8.51,-32.93 22.27,-32.93 9.27,0 15.84,6.03 19.71,18.08 l 35.89,0 c -1.71,-7.47 -4.91,-14.48 -9.59,-21.05 -10.51,-14.93 -25.68,-22.4 -45.47,-22.4 -18.18,0 -32.61,5.8 -43.32,17.41 -11.52,12.41 -17.27,28.88 -17.27,49.39 0,19.07 5.21,34.95 15.65,47.64 11.24,13.67 25.78,20.51 43.59,20.51 14.3,0 26.45,-4.54 36.43,-13.63 10.53,-9.72 17.23,-23.62 20.11,-41.7 0.9,-5.85 1.49,-12.95 1.76,-21.32"
         style="fill:#ffffff;fill-opacity:1;fill-rule:nonzero;stroke:none"
         id="path70"
         inkscape:connector-curvature="0" /><path
         d="m 1459.37,1266.18 35.08,0 c 1.53,-11.79 7.74,-17.68 18.63,-17.68 4.76,0 8.49,1.17 11.2,3.51 2.78,2.43 4.18,5.67 4.18,9.72 0,5.66 -3.11,10.2 -9.31,13.62 -2.7,1.54 -8.23,3.74 -16.6,6.62 -14.12,4.86 -23.53,9.04 -28.2,12.55 -9.18,6.83 -13.77,15.65 -13.77,26.45 0,12.05 4.5,21.5 13.49,28.34 8.28,6.39 19.57,9.58 33.88,9.58 19.07,0 33.28,-5.9 42.64,-17.68 4.22,-5.4 7.02,-11.87 8.37,-19.43 l -35.22,0 c -2.34,8.1 -7.21,12.14 -14.58,12.14 -8.01,0 -12.01,-3.73 -12.01,-11.2 0,-5.04 2.88,-9.09 8.64,-12.14 2.51,-1.26 9.31,-3.69 20.37,-7.29 10.62,-3.42 18.76,-7.29 24.43,-11.61 9,-6.74 13.49,-15.97 13.49,-27.66 0,-12.14 -4.58,-21.91 -13.76,-29.28 -8.9,-7.2 -20.96,-10.8 -36.17,-10.8 -14.76,0 -26.27,2.83 -34.54,8.5 -11.7,7.92 -18.45,19.16 -20.24,33.74"
         style="fill:#ffffff;fill-opacity:1;fill-rule:nonzero;stroke:none"
         id="path72"
         inkscape:connector-curvature="0" /><path
         d="m 216.055,410.102 116.66,0 0,116.688 -116.66,0 0,-116.688 z"
         style="fill:#ffffff;fill-opacity:1;fill-rule:nonzero;stroke:none"
         id="path74"
         inkscape:connector-curvature="0" /><path
         d="m 571.797,410.102 116.66,0 0,116.688 -116.66,0 0,-116.688 z"
         style="fill:#ffffff;fill-opacity:1;fill-rule:nonzero;stroke:none"
         id="path76"
         inkscape:connector-curvature="0" /><path
         d="m 921.777,410.102 116.652,0 0,116.688 -116.652,0 0,-116.688 z"
         style="fill:#ffffff;fill-opacity:1;fill-rule:nonzero;stroke:none"
         id="path78"
         inkscape:connector-curvature="0" /><path
         d="m 1271.75,410.102 116.672,0 0,116.688 -116.672,0 0,-116.688 z"
         style="fill:#ffffff;fill-opacity:1;fill-rule:nonzero;stroke:none"
         id="path80"
         inkscape:connector-curvature="0" /><path
         d="m 682.676,791.801 -460.86,0 -5.761,-203.289 30.566,-5.282 c 5.699,59.891 21.41,104.34 47.156,133.352 27.102,30.34 64.414,46.207 112.383,47.566 l 0,-425.269 c 0,-37.141 -5.183,-61.258 -16.023,-72.379 -9.207,-9.48 -24.809,-15.309 -46.758,-17.488 -6.504,-0.512 -17.613,-0.793 -33.328,-0.793 l 0,-32.528 284.414,0 0,32.528 c -15.727,0 -26.836,0.281 -33.336,0.793 -21.953,2.179 -37.555,8.008 -46.754,17.488 -10.852,11.121 -16.098,35.238 -16.098,72.379 l 0,425.269 c 47.989,-1.359 85.344,-17.226 112.446,-47.566 25.746,-29.012 41.472,-73.461 47.168,-133.352 l 30.566,5.282 -5.781,203.289"
         style="fill:#ffffff;fill-opacity:1;fill-rule:nonzero;stroke:none"
         id="path82"
         inkscape:connector-curvature="0" /></g></g></svg>